<?xml version="1.0" encoding="UTF-8" standalone="no"?>
<!-- Created with Inkscape (http://www.inkscape.org/) -->

<svg
   width="231.28577mm"
   height="76.746735mm"
   viewBox="0 0 231.28577 76.746735"
   version="1.1"
   id="svg5"
   inkscape:version="1.1.1 (3bf5ae0d25, 2021-09-20)"
   sodipodi:docname="logo.svg"
   xmlns:inkscape="http://www.inkscape.org/namespaces/inkscape"
   xmlns:sodipodi="http://sodipodi.sourceforge.net/DTD/sodipodi-0.dtd"
   xmlns="http://www.w3.org/2000/svg"
   xmlns:svg="http://www.w3.org/2000/svg">
  <sodipodi:namedview
     id="namedview7"
     pagecolor="#505050"
     bordercolor="#eeeeee"
     borderopacity="1"
     inkscape:pageshadow="0"
     inkscape:pageopacity="0"
     inkscape:pagecheckerboard="0"
     inkscape:document-units="mm"
     showgrid="false"
     inkscape:zoom="0.36703143"
     inkscape:cx="794.20992"
     inkscape:cy="453.63963"
     inkscape:window-width="1920"
     inkscape:window-height="1009"
     inkscape:window-x="-8"
     inkscape:window-y="-8"
     inkscape:window-maximized="1"
     inkscape:current-layer="layer1" />
  <defs
     id="defs2" />
  <g
     inkscape:label="Layer 1"
     inkscape:groupmode="layer"
     id="layer1"
     transform="translate(9.9222391,-5.0567493)">
    <path
       style="fill:#db202c;fill-opacity:1;stroke:none;stroke-width:1;stroke-linecap:butt;stroke-linejoin:round;stroke-miterlimit:4;stroke-dasharray:none;stroke-dashoffset:0;stroke-opacity:1;paint-order:markers fill stroke"
       d="m -9.9059166,43.43205 0.06791,-38.3645927 h 8.068025 c 4.437414,0 8.068025,0.04161 8.068025,0.09247 0,0.05086 1.53648,9.1293757 3.414401,20.1744797 1.8779206,11.045105 3.7454336,22.165604 4.1500276,24.712214 0.404596,2.54662 0.810488,4.72116 0.901983,4.83233 0.09149,0.11116 0.372743,-1.19853 0.624996,-2.91042 1.15933,-7.867696 3.543118,-23.241796 5.34135,-34.44876 1.084273,-6.757424 1.971408,-12.3235957 1.971408,-12.3692717 0,-0.04567 3.630533,-0.08304 8.06785,-0.08304 h 8.067849 l 0.06809,34.7931407 0.06809,34.793141 -0.79375,0.12241 c -0.436563,0.0673 -2.520156,0.31129 -4.630208,0.54215 -2.110052,0.23085 -4.223412,0.48648 -4.696354,0.56806 l -0.859896,0.14832 -0.02387,-26.02476 C 27.95626,35.009415 27.849805,24.321406 27.718706,24.778919 c -0.545245,1.902833 -7.66233,49.827262 -7.66233,51.595952 0,0.362594 -0.0893,0.661404 -0.198438,0.664034 -0.10914,0.003 -2.572236,0.35734 -5.473543,0.78826 -2.90131,0.43092 -5.3363886,0.72221 -5.4112876,0.64731 -0.0749,-0.0749 -0.876871,-4.924234 -1.782162,-10.776284 -2.204113,-14.24802 -6.68452904,-41.523052 -6.84771504,-41.686238 -0.07183,-0.07183 -0.130668,12.063382 -0.130746,26.967138 l -1.42e-4,27.097744 -4.96079496,0.86672 c -2.728438,0.47669 -5.020327,0.86365 -5.093087,0.8599 -0.07276,-0.004 -0.101731,-17.270874 -0.06438,-38.371403 z M 214.70964,80.739755 c -3.02722,-0.5497 -5.54231,-1.0428 -5.58909,-1.09577 -0.0468,-0.053 -0.82662,-2.77522 -1.73298,-6.049444 -1.60108,-5.78396 -4.88385,-16.87461 -6.80422,-22.9877 l -0.94608,-3.01166 -0.3783,0.89499 c -0.54702,1.29416 -9.0755,27.56064 -9.0755,27.95122 0,0.432684 -0.005,0.432384 -5.87293,-0.33331 -2.78785,-0.3638 -5.09843,-0.66145 -5.13463,-0.66145 -0.18767,0 5.01552,-15.00572 9.80302,-28.27137 l 3.08922,-8.559913 -1.64007,-4.669256 c -1.59566,-4.542825 -8.49869,-23.508934 -9.86084,-27.0926967 l -0.67881,-1.785938 h 6.04385 6.04385 l 1.58073,4.564063 c 0.8694,2.5102347 2.8161,8.2847657 4.32599,12.8322917 1.50989,4.547527 2.80836,8.26823 2.88548,8.26823 0.0771,0 2.12094,-5.744766 4.54182,-12.766147 l 4.40158,-12.7661457 5.44386,-0.0715 5.44385,-0.0715 -0.76832,2.188164 c -0.42258,1.20349 -3.16201,9.0047467 -6.08761,17.3361257 l -5.31927,15.147963 2.77282,8.532239 c 3.79297,11.67138 7.22332,22.92895 9.63418,31.617154 l 0.53228,1.91823 -0.57492,-0.0287 c -0.31621,-0.0158 -3.05174,-0.47847 -6.07896,-1.02817 z m -48.33867,-6.627724 c -2.4011,-0.25793 -4.45493,-0.47988 -4.56407,-0.49323 -0.10914,-0.0133 -0.19843,-15.44285 -0.19843,-34.287801 V 5.0674573 h 5.82083 5.82083 V 39.860167 74.652881 l -1.25677,-0.0359 c -0.69122,-0.0198 -3.2213,-0.24698 -5.62239,-0.50491 z m -15.98199,-1.33655 c -2.86461,-0.23595 -14.66848,-0.90692 -20.86124,-1.18582 l -3.90261,-0.17576 V 38.240682 5.0674573 h 5.82084 5.82083 V 33.229968 c 0,15.489383 0.0946,28.220953 0.21014,28.292383 0.11558,0.0714 3.71722,0.31666 8.00365,0.54494 4.28643,0.22829 8.53764,0.4884 9.44715,0.57802 l 1.65364,0.16296 v 5.12855 5.12856 l -1.78593,-0.037 c -0.98227,-0.0204 -2.96518,-0.13415 -4.40647,-0.25287 z M 58.358184,61.093061 58.427698,49.385171 51.16955,27.689333 C 47.17757,15.756625 43.828712,5.7829123 43.727644,5.5255283 43.55462,5.0849053 43.902997,5.0617113 49.688831,5.1286533 l 6.14495,0.0711 4.321623,14.5080497 c 2.37689,7.979428 4.369303,14.646929 4.427573,14.816667 0.0583,0.16974 0.31061,-0.405757 0.560744,-1.278882 0.35565,-1.24147 6.03486,-20.346181 8.00284,-26.9213557 l 0.37616,-1.256771 h 5.546 c 3.0503,0 5.546,0.0401 5.546,0.0891 0,0.04901 -1.4394,4.245959 -3.19866,9.3265627 -1.75927,5.080604 -5.00372,14.595274 -7.2099,21.143712 l -4.01123,11.906245 -0.1323,12.30313 -0.13229,12.30312 -4.23333,0.30602 c -2.328334,0.16832 -4.947717,0.31718 -5.820837,0.33081 l -1.587504,0.0248 0.06951,-11.70789 z M 89.377221,38.303525 V 5.0674573 h 15.345829 15.34583 v 4.497917 4.4979167 h -9.525 -9.525 v 9.657292 9.657292 h 7.54063 7.54062 v 4.657506 4.657503 l -6.68073,-0.143206 c -3.6744,-0.07876 -7.06768,-0.07753 -7.54062,0.0027 l -0.8599,0.145939 v 14.257464 14.25747 l -5.225519,0.004 c -2.87403,0.002 -5.49341,0.0754 -5.82083,0.16315 l -0.59531,0.15955 V 38.303502 Z"
       id="path2519" />
  </g>
</svg>
